<svg xmlns="http://www.w3.org/2000/svg" xmlns:xlink="http://www.w3.org/1999/xlink" viewBox="0 0 119.01 141.47"><defs><linearGradient id="a" x1="29.55" y1="2.19" x2="29.55" y2="143.65" gradientTransform="matrix(1, 0, 0, -1, 0, 144.07)" gradientUnits="userSpaceOnUse"><stop offset="0" stop-color="#4ca585"/><stop offset="0.03" stop-color="#49a386"/><stop offset="0.45" stop-color="#218890"/><stop offset="0.79" stop-color="#097896"/><stop offset="1" stop-color="#007298"/></linearGradient><linearGradient id="b" x1="4.92" y1="132.17" x2="112.26" y2="57.02" gradientTransform="matrix(1, 0, 0, -1, 0, 144.07)" gradientUnits="userSpaceOnUse"><stop offset="0" stop-color="#4ca585"/><stop offset="0.03" stop-color="#49a386"/><stop offset="0.46" stop-color="#218890"/><stop offset="0.79" stop-color="#097896"/><stop offset="1" stop-color="#007298"/></linearGradient><linearGradient id="c" x1="4.89" y1="14.45" x2="113" y2="90.15" gradientTransform="matrix(1, 0, 0, -1, 0, 144.07)" gradientUnits="userSpaceOnUse"><stop offset="0.1" stop-color="#007298"/><stop offset="1" stop-color="#4ca585"/></linearGradient></defs><path d="M29.53,141.46A29.51,29.51,0,0,1,.05,112V29.5a29.5,29.5,0,0,1,59,0V112A29.49,29.49,0,0,1,29.53,141.46Zm0-126.87A14.75,14.75,0,0,0,14.63,29.2v82.88a14.91,14.91,0,1,0,29.82,0V29.5A14.94,14.94,0,0,0,29.53,14.59Z" fill="url(#a)"/><path d="M89.48,100.24a29.28,29.28,0,0,1-15.91-4.7L13.47,54.22a29.47,29.47,0,0,1,32-49.5L105.58,46a29.46,29.46,0,0,1-12,53.91A28,28,0,0,1,89.48,100.24ZM29.54,14.58A14.92,14.92,0,0,0,21.43,42l60.08,41.3a14.78,14.78,0,0,0,8,2.36h0a14.75,14.75,0,0,0,3.18-.34,15,15,0,0,0,4.92-27.21L37.54,16.93A15.09,15.09,0,0,0,29.54,14.58Z" fill="url(#b)"/><path d="M29.56,141.47A29.47,29.47,0,0,1,13.42,87.31L73.6,45.94a29.34,29.34,0,0,1,15.88-4.67,29.85,29.85,0,0,1,4.13.29,29.46,29.46,0,0,1,12,53.87L45.44,136.8A29.12,29.12,0,0,1,29.56,141.47Zm60-85.65a14.88,14.88,0,0,0-7.93,2.3L21.4,99.5a14.91,14.91,0,0,0,16.06,25.12L97.63,83.25a14.92,14.92,0,0,0-8.12-27.43Z" fill="url(#c)"/></svg>